<mxfile host="app.diagrams.net" modified="2021-01-12T06:08:29.015Z" agent="5.0 (Windows NT 10.0; Win64; x64) AppleWebKit/537.36 (KHTML, like Gecko) Chrome/87.0.4280.141 Safari/537.36" etag="J7CclGr_rFJxazbUWJB3" version="14.1.9" type="github">
  <diagram id="gr8mePXOwqEa09n39ZT5" name="Page-1">
    <mxGraphModel dx="1888" dy="1680" grid="1" gridSize="10" guides="1" tooltips="1" connect="1" arrows="1" fold="1" page="1" pageScale="1" pageWidth="850" pageHeight="1100" math="0" shadow="0">
      <root>
        <mxCell id="0" />
        <mxCell id="1" parent="0" />
        <mxCell id="upfUaN1eIwM9kzlYgYOl-1" value="User" style="rounded=0;whiteSpace=wrap;html=1;" parent="1" vertex="1">
          <mxGeometry x="-10" y="130" width="80" height="60" as="geometry" />
        </mxCell>
        <mxCell id="upfUaN1eIwM9kzlYgYOl-2" value="Parking" style="rounded=0;whiteSpace=wrap;html=1;" parent="1" vertex="1">
          <mxGeometry x="590" y="110" width="120" height="60" as="geometry" />
        </mxCell>
        <mxCell id="upfUaN1eIwM9kzlYgYOl-48" style="edgeStyle=orthogonalEdgeStyle;rounded=0;orthogonalLoop=1;jettySize=auto;html=1;entryX=0.25;entryY=1;entryDx=0;entryDy=0;" parent="1" source="upfUaN1eIwM9kzlYgYOl-5" target="upfUaN1eIwM9kzlYgYOl-2" edge="1">
          <mxGeometry relative="1" as="geometry" />
        </mxCell>
        <mxCell id="upfUaN1eIwM9kzlYgYOl-5" value="Vehicle" style="rounded=0;whiteSpace=wrap;html=1;" parent="1" vertex="1">
          <mxGeometry x="560" y="350" width="120" height="60" as="geometry" />
        </mxCell>
        <mxCell id="upfUaN1eIwM9kzlYgYOl-6" value="Agency" style="rounded=0;whiteSpace=wrap;html=1;" parent="1" vertex="1">
          <mxGeometry x="-70" y="510" width="120" height="60" as="geometry" />
        </mxCell>
        <mxCell id="upfUaN1eIwM9kzlYgYOl-7" value="UserTypes" style="rounded=0;whiteSpace=wrap;html=1;" parent="1" vertex="1">
          <mxGeometry x="50" y="260" width="120" height="60" as="geometry" />
        </mxCell>
        <mxCell id="upfUaN1eIwM9kzlYgYOl-29" style="edgeStyle=orthogonalEdgeStyle;rounded=0;orthogonalLoop=1;jettySize=auto;html=1;entryX=1;entryY=0.5;entryDx=0;entryDy=0;" parent="1" source="upfUaN1eIwM9kzlYgYOl-8" target="upfUaN1eIwM9kzlYgYOl-1" edge="1">
          <mxGeometry relative="1" as="geometry" />
        </mxCell>
        <mxCell id="upfUaN1eIwM9kzlYgYOl-8" value="Roles" style="rounded=0;whiteSpace=wrap;html=1;" parent="1" vertex="1">
          <mxGeometry x="150" y="130" width="100" height="60" as="geometry" />
        </mxCell>
        <mxCell id="upfUaN1eIwM9kzlYgYOl-9" value="UserName" style="ellipse;whiteSpace=wrap;html=1;" parent="1" vertex="1">
          <mxGeometry x="-180" y="10" width="120" height="80" as="geometry" />
        </mxCell>
        <mxCell id="upfUaN1eIwM9kzlYgYOl-10" value="PasswordHash" style="ellipse;whiteSpace=wrap;html=1;" parent="1" vertex="1">
          <mxGeometry x="-190" y="120" width="120" height="80" as="geometry" />
        </mxCell>
        <mxCell id="upfUaN1eIwM9kzlYgYOl-11" value="PhoneNumber" style="ellipse;whiteSpace=wrap;html=1;" parent="1" vertex="1">
          <mxGeometry x="-190" y="240" width="120" height="80" as="geometry" />
        </mxCell>
        <mxCell id="upfUaN1eIwM9kzlYgYOl-12" value="Email" style="ellipse;whiteSpace=wrap;html=1;" parent="1" vertex="1">
          <mxGeometry x="-180" y="360" width="120" height="80" as="geometry" />
        </mxCell>
        <mxCell id="upfUaN1eIwM9kzlYgYOl-14" value="" style="endArrow=none;html=1;entryX=0.5;entryY=0;entryDx=0;entryDy=0;exitX=1;exitY=0.5;exitDx=0;exitDy=0;" parent="1" source="upfUaN1eIwM9kzlYgYOl-9" target="upfUaN1eIwM9kzlYgYOl-1" edge="1">
          <mxGeometry width="50" height="50" relative="1" as="geometry">
            <mxPoint x="-70" y="120" as="sourcePoint" />
            <mxPoint x="-20" y="70" as="targetPoint" />
          </mxGeometry>
        </mxCell>
        <mxCell id="upfUaN1eIwM9kzlYgYOl-15" value="" style="endArrow=none;html=1;exitX=1;exitY=0.5;exitDx=0;exitDy=0;entryX=0;entryY=0.25;entryDx=0;entryDy=0;" parent="1" source="upfUaN1eIwM9kzlYgYOl-10" target="upfUaN1eIwM9kzlYgYOl-1" edge="1">
          <mxGeometry width="50" height="50" relative="1" as="geometry">
            <mxPoint x="-10" y="200" as="sourcePoint" />
            <mxPoint x="40" y="150" as="targetPoint" />
          </mxGeometry>
        </mxCell>
        <mxCell id="upfUaN1eIwM9kzlYgYOl-16" value="" style="endArrow=none;html=1;entryX=0;entryY=1;entryDx=0;entryDy=0;exitX=0.5;exitY=0;exitDx=0;exitDy=0;" parent="1" source="upfUaN1eIwM9kzlYgYOl-11" target="upfUaN1eIwM9kzlYgYOl-1" edge="1">
          <mxGeometry width="50" height="50" relative="1" as="geometry">
            <mxPoint x="-110" y="290" as="sourcePoint" />
            <mxPoint x="-60" y="240" as="targetPoint" />
          </mxGeometry>
        </mxCell>
        <mxCell id="upfUaN1eIwM9kzlYgYOl-17" value="" style="endArrow=none;html=1;entryX=0.25;entryY=1;entryDx=0;entryDy=0;exitX=1;exitY=0;exitDx=0;exitDy=0;" parent="1" source="upfUaN1eIwM9kzlYgYOl-12" target="upfUaN1eIwM9kzlYgYOl-1" edge="1">
          <mxGeometry width="50" height="50" relative="1" as="geometry">
            <mxPoint x="-100" y="410" as="sourcePoint" />
            <mxPoint x="-50" y="360" as="targetPoint" />
          </mxGeometry>
        </mxCell>
        <mxCell id="upfUaN1eIwM9kzlYgYOl-18" value="" style="endArrow=classic;html=1;entryX=0.69;entryY=1.03;entryDx=0;entryDy=0;entryPerimeter=0;exitX=0.25;exitY=0;exitDx=0;exitDy=0;" parent="1" source="upfUaN1eIwM9kzlYgYOl-7" target="upfUaN1eIwM9kzlYgYOl-1" edge="1">
          <mxGeometry width="50" height="50" relative="1" as="geometry">
            <mxPoint x="240" y="220" as="sourcePoint" />
            <mxPoint x="290" y="170" as="targetPoint" />
          </mxGeometry>
        </mxCell>
        <mxCell id="upfUaN1eIwM9kzlYgYOl-20" value="AdminWeb" style="ellipse;whiteSpace=wrap;html=1;" parent="1" vertex="1">
          <mxGeometry x="-20" y="350" width="120" height="80" as="geometry" />
        </mxCell>
        <mxCell id="upfUaN1eIwM9kzlYgYOl-21" value="AdminMobile" style="ellipse;whiteSpace=wrap;html=1;" parent="1" vertex="1">
          <mxGeometry x="120" y="350" width="120" height="80" as="geometry" />
        </mxCell>
        <mxCell id="upfUaN1eIwM9kzlYgYOl-22" value="" style="endArrow=none;html=1;entryX=0.25;entryY=1;entryDx=0;entryDy=0;exitX=0.5;exitY=0;exitDx=0;exitDy=0;" parent="1" source="upfUaN1eIwM9kzlYgYOl-20" target="upfUaN1eIwM9kzlYgYOl-7" edge="1">
          <mxGeometry width="50" height="50" relative="1" as="geometry">
            <mxPoint x="100" y="370" as="sourcePoint" />
            <mxPoint x="150" y="320" as="targetPoint" />
          </mxGeometry>
        </mxCell>
        <mxCell id="upfUaN1eIwM9kzlYgYOl-23" value="" style="endArrow=none;html=1;entryX=0.75;entryY=1;entryDx=0;entryDy=0;exitX=0.5;exitY=0;exitDx=0;exitDy=0;" parent="1" source="upfUaN1eIwM9kzlYgYOl-21" target="upfUaN1eIwM9kzlYgYOl-7" edge="1">
          <mxGeometry width="50" height="50" relative="1" as="geometry">
            <mxPoint x="200" y="370" as="sourcePoint" />
            <mxPoint x="250" y="320" as="targetPoint" />
          </mxGeometry>
        </mxCell>
        <mxCell id="upfUaN1eIwM9kzlYgYOl-27" value="VehicleStatus" style="rounded=0;whiteSpace=wrap;html=1;" parent="1" vertex="1">
          <mxGeometry x="780" y="380" width="110" height="50" as="geometry" />
        </mxCell>
        <mxCell id="upfUaN1eIwM9kzlYgYOl-30" value="Customer" style="ellipse;whiteSpace=wrap;html=1;" parent="1" vertex="1">
          <mxGeometry x="310" y="90" width="125" height="80" as="geometry" />
        </mxCell>
        <mxCell id="upfUaN1eIwM9kzlYgYOl-31" value="Security" style="ellipse;whiteSpace=wrap;html=1;" parent="1" vertex="1">
          <mxGeometry x="300" y="190" width="125" height="80" as="geometry" />
        </mxCell>
        <mxCell id="upfUaN1eIwM9kzlYgYOl-32" value="AdministratorWeb" style="ellipse;whiteSpace=wrap;html=1;" parent="1" vertex="1">
          <mxGeometry x="310" y="-100" width="125" height="80" as="geometry" />
        </mxCell>
        <mxCell id="upfUaN1eIwM9kzlYgYOl-33" value="AdministratorMobile" style="ellipse;whiteSpace=wrap;html=1;" parent="1" vertex="1">
          <mxGeometry x="300" width="125" height="80" as="geometry" />
        </mxCell>
        <mxCell id="upfUaN1eIwM9kzlYgYOl-35" value="" style="endArrow=none;html=1;entryX=0.318;entryY=0.028;entryDx=0;entryDy=0;entryPerimeter=0;exitX=1;exitY=0.75;exitDx=0;exitDy=0;" parent="1" source="upfUaN1eIwM9kzlYgYOl-8" target="upfUaN1eIwM9kzlYgYOl-31" edge="1">
          <mxGeometry width="50" height="50" relative="1" as="geometry">
            <mxPoint x="250" y="220" as="sourcePoint" />
            <mxPoint x="300" y="170" as="targetPoint" />
          </mxGeometry>
        </mxCell>
        <mxCell id="upfUaN1eIwM9kzlYgYOl-36" value="" style="endArrow=none;html=1;exitX=1;exitY=0.25;exitDx=0;exitDy=0;" parent="1" source="upfUaN1eIwM9kzlYgYOl-8" edge="1">
          <mxGeometry width="50" height="50" relative="1" as="geometry">
            <mxPoint x="310" y="160" as="sourcePoint" />
            <mxPoint x="310" y="130" as="targetPoint" />
          </mxGeometry>
        </mxCell>
        <mxCell id="upfUaN1eIwM9kzlYgYOl-37" value="" style="endArrow=none;html=1;exitX=1;exitY=0;exitDx=0;exitDy=0;entryX=0;entryY=1;entryDx=0;entryDy=0;" parent="1" source="upfUaN1eIwM9kzlYgYOl-8" target="upfUaN1eIwM9kzlYgYOl-33" edge="1">
          <mxGeometry width="50" height="50" relative="1" as="geometry">
            <mxPoint x="300" y="100" as="sourcePoint" />
            <mxPoint x="350" y="50" as="targetPoint" />
          </mxGeometry>
        </mxCell>
        <mxCell id="upfUaN1eIwM9kzlYgYOl-39" value="" style="endArrow=none;html=1;exitX=0.5;exitY=0;exitDx=0;exitDy=0;entryX=0;entryY=1;entryDx=0;entryDy=0;" parent="1" source="upfUaN1eIwM9kzlYgYOl-8" target="upfUaN1eIwM9kzlYgYOl-32" edge="1">
          <mxGeometry width="50" height="50" relative="1" as="geometry">
            <mxPoint x="310" y="10" as="sourcePoint" />
            <mxPoint x="360" y="-40" as="targetPoint" />
          </mxGeometry>
        </mxCell>
        <mxCell id="upfUaN1eIwM9kzlYgYOl-40" value="LicensePlates" style="ellipse;whiteSpace=wrap;html=1;" parent="1" vertex="1">
          <mxGeometry x="390" y="460" width="120" height="80" as="geometry" />
        </mxCell>
        <mxCell id="upfUaN1eIwM9kzlYgYOl-41" value="EngineNumber" style="ellipse;whiteSpace=wrap;html=1;" parent="1" vertex="1">
          <mxGeometry x="520" y="460" width="120" height="80" as="geometry" />
        </mxCell>
        <mxCell id="upfUaN1eIwM9kzlYgYOl-42" value="Name" style="ellipse;whiteSpace=wrap;html=1;" parent="1" vertex="1">
          <mxGeometry x="660" y="450" width="120" height="80" as="geometry" />
        </mxCell>
        <mxCell id="upfUaN1eIwM9kzlYgYOl-44" style="edgeStyle=orthogonalEdgeStyle;rounded=0;orthogonalLoop=1;jettySize=auto;html=1;entryX=0.75;entryY=0;entryDx=0;entryDy=0;" parent="1" source="upfUaN1eIwM9kzlYgYOl-43" target="upfUaN1eIwM9kzlYgYOl-5" edge="1">
          <mxGeometry relative="1" as="geometry" />
        </mxCell>
        <mxCell id="upfUaN1eIwM9kzlYgYOl-43" value="VehicleType" style="rounded=0;whiteSpace=wrap;html=1;" parent="1" vertex="1">
          <mxGeometry x="760" y="265" width="110" height="50" as="geometry" />
        </mxCell>
        <mxCell id="upfUaN1eIwM9kzlYgYOl-45" value="" style="endArrow=none;html=1;exitX=0.5;exitY=0;exitDx=0;exitDy=0;entryX=0;entryY=0.5;entryDx=0;entryDy=0;" parent="1" source="upfUaN1eIwM9kzlYgYOl-40" target="upfUaN1eIwM9kzlYgYOl-5" edge="1">
          <mxGeometry width="50" height="50" relative="1" as="geometry">
            <mxPoint x="380" y="460" as="sourcePoint" />
            <mxPoint x="430" y="410" as="targetPoint" />
          </mxGeometry>
        </mxCell>
        <mxCell id="upfUaN1eIwM9kzlYgYOl-46" value="" style="endArrow=none;html=1;exitX=0.5;exitY=0;exitDx=0;exitDy=0;entryX=0.5;entryY=1;entryDx=0;entryDy=0;" parent="1" source="upfUaN1eIwM9kzlYgYOl-41" target="upfUaN1eIwM9kzlYgYOl-5" edge="1">
          <mxGeometry width="50" height="50" relative="1" as="geometry">
            <mxPoint x="440" y="490" as="sourcePoint" />
            <mxPoint x="490" y="440" as="targetPoint" />
          </mxGeometry>
        </mxCell>
        <mxCell id="upfUaN1eIwM9kzlYgYOl-47" value="" style="endArrow=none;html=1;exitX=0.5;exitY=0;exitDx=0;exitDy=0;entryX=0.86;entryY=1.023;entryDx=0;entryDy=0;entryPerimeter=0;" parent="1" source="upfUaN1eIwM9kzlYgYOl-42" target="upfUaN1eIwM9kzlYgYOl-5" edge="1">
          <mxGeometry width="50" height="50" relative="1" as="geometry">
            <mxPoint x="500" y="480" as="sourcePoint" />
            <mxPoint x="550" y="430" as="targetPoint" />
          </mxGeometry>
        </mxCell>
        <mxCell id="upfUaN1eIwM9kzlYgYOl-49" value="Position" style="ellipse;whiteSpace=wrap;html=1;" parent="1" vertex="1">
          <mxGeometry x="590" y="-70" width="120" height="80" as="geometry" />
        </mxCell>
        <mxCell id="upfUaN1eIwM9kzlYgYOl-50" value="Image" style="ellipse;whiteSpace=wrap;html=1;" parent="1" vertex="1">
          <mxGeometry x="730" y="-20" width="120" height="80" as="geometry" />
        </mxCell>
        <mxCell id="upfUaN1eIwM9kzlYgYOl-51" value="" style="endArrow=none;html=1;exitX=0.37;exitY=-0.023;exitDx=0;exitDy=0;exitPerimeter=0;" parent="1" source="upfUaN1eIwM9kzlYgYOl-2" target="upfUaN1eIwM9kzlYgYOl-49" edge="1">
          <mxGeometry width="50" height="50" relative="1" as="geometry">
            <mxPoint x="640" y="60" as="sourcePoint" />
            <mxPoint x="690" y="10" as="targetPoint" />
          </mxGeometry>
        </mxCell>
        <mxCell id="upfUaN1eIwM9kzlYgYOl-52" value="" style="endArrow=none;html=1;exitX=1;exitY=0;exitDx=0;exitDy=0;entryX=0;entryY=1;entryDx=0;entryDy=0;" parent="1" source="upfUaN1eIwM9kzlYgYOl-2" target="upfUaN1eIwM9kzlYgYOl-50" edge="1">
          <mxGeometry width="50" height="50" relative="1" as="geometry">
            <mxPoint x="750" y="90" as="sourcePoint" />
            <mxPoint x="800" y="40" as="targetPoint" />
          </mxGeometry>
        </mxCell>
        <mxCell id="upfUaN1eIwM9kzlYgYOl-53" value="QRCode" style="ellipse;whiteSpace=wrap;html=1;" parent="1" vertex="1">
          <mxGeometry x="790" y="80" width="120" height="80" as="geometry" />
        </mxCell>
        <mxCell id="upfUaN1eIwM9kzlYgYOl-54" value="" style="endArrow=none;html=1;entryX=0;entryY=0.5;entryDx=0;entryDy=0;exitX=1;exitY=0.5;exitDx=0;exitDy=0;" parent="1" source="upfUaN1eIwM9kzlYgYOl-2" target="upfUaN1eIwM9kzlYgYOl-53" edge="1">
          <mxGeometry width="50" height="50" relative="1" as="geometry">
            <mxPoint x="710" y="180" as="sourcePoint" />
            <mxPoint x="760" y="130" as="targetPoint" />
          </mxGeometry>
        </mxCell>
        <mxCell id="upfUaN1eIwM9kzlYgYOl-56" value="Bicycle" style="ellipse;whiteSpace=wrap;html=1;" parent="1" vertex="1">
          <mxGeometry x="930" y="280" width="120" height="80" as="geometry" />
        </mxCell>
        <mxCell id="upfUaN1eIwM9kzlYgYOl-57" value="Bike" style="ellipse;whiteSpace=wrap;html=1;" parent="1" vertex="1">
          <mxGeometry x="920" y="185" width="120" height="80" as="geometry" />
        </mxCell>
        <mxCell id="upfUaN1eIwM9kzlYgYOl-58" value="" style="endArrow=none;html=1;exitX=0.5;exitY=0;exitDx=0;exitDy=0;entryX=0;entryY=0.5;entryDx=0;entryDy=0;" parent="1" source="upfUaN1eIwM9kzlYgYOl-43" target="upfUaN1eIwM9kzlYgYOl-57" edge="1">
          <mxGeometry width="50" height="50" relative="1" as="geometry">
            <mxPoint x="920" y="270" as="sourcePoint" />
            <mxPoint x="970" y="220" as="targetPoint" />
          </mxGeometry>
        </mxCell>
        <mxCell id="upfUaN1eIwM9kzlYgYOl-59" value="" style="endArrow=none;html=1;exitX=1;exitY=0.5;exitDx=0;exitDy=0;entryX=0;entryY=0;entryDx=0;entryDy=0;" parent="1" source="upfUaN1eIwM9kzlYgYOl-43" target="upfUaN1eIwM9kzlYgYOl-56" edge="1">
          <mxGeometry width="50" height="50" relative="1" as="geometry">
            <mxPoint x="940" y="350" as="sourcePoint" />
            <mxPoint x="990" y="300" as="targetPoint" />
          </mxGeometry>
        </mxCell>
        <mxCell id="upfUaN1eIwM9kzlYgYOl-60" value="InPark" style="ellipse;whiteSpace=wrap;html=1;" parent="1" vertex="1">
          <mxGeometry x="940" y="380" width="120" height="80" as="geometry" />
        </mxCell>
        <mxCell id="upfUaN1eIwM9kzlYgYOl-61" value="OutPark" style="ellipse;whiteSpace=wrap;html=1;" parent="1" vertex="1">
          <mxGeometry x="920" y="490" width="120" height="80" as="geometry" />
        </mxCell>
        <mxCell id="upfUaN1eIwM9kzlYgYOl-62" value="" style="endArrow=none;html=1;entryX=0.014;entryY=0.407;entryDx=0;entryDy=0;entryPerimeter=0;exitX=1;exitY=0.5;exitDx=0;exitDy=0;" parent="1" source="upfUaN1eIwM9kzlYgYOl-27" target="upfUaN1eIwM9kzlYgYOl-60" edge="1">
          <mxGeometry width="50" height="50" relative="1" as="geometry">
            <mxPoint x="900" y="430" as="sourcePoint" />
            <mxPoint x="950" y="380" as="targetPoint" />
          </mxGeometry>
        </mxCell>
        <mxCell id="upfUaN1eIwM9kzlYgYOl-63" value="" style="endArrow=none;html=1;exitX=0.228;exitY=0.044;exitDx=0;exitDy=0;exitPerimeter=0;entryX=0.675;entryY=1.001;entryDx=0;entryDy=0;entryPerimeter=0;" parent="1" source="upfUaN1eIwM9kzlYgYOl-61" target="upfUaN1eIwM9kzlYgYOl-27" edge="1">
          <mxGeometry width="50" height="50" relative="1" as="geometry">
            <mxPoint x="850" y="450" as="sourcePoint" />
            <mxPoint x="900" y="400" as="targetPoint" />
          </mxGeometry>
        </mxCell>
        <mxCell id="upfUaN1eIwM9kzlYgYOl-65" value="" style="endArrow=classic;html=1;exitX=0;exitY=0.5;exitDx=0;exitDy=0;entryX=1;entryY=0.5;entryDx=0;entryDy=0;" parent="1" source="upfUaN1eIwM9kzlYgYOl-27" target="upfUaN1eIwM9kzlYgYOl-5" edge="1">
          <mxGeometry width="50" height="50" relative="1" as="geometry">
            <mxPoint x="680" y="430" as="sourcePoint" />
            <mxPoint x="730" y="380" as="targetPoint" />
          </mxGeometry>
        </mxCell>
      </root>
    </mxGraphModel>
  </diagram>
</mxfile>
